<?xml version="1.0" encoding="UTF-8" standalone="no"?>
<!-- Created with Inkscape (http://www.inkscape.org/) -->

<svg
   xmlns:dc="http://purl.org/dc/elements/1.1/"
   xmlns:cc="http://creativecommons.org/ns#"
   xmlns:rdf="http://www.w3.org/1999/02/22-rdf-syntax-ns#"
   xmlns:svg="http://www.w3.org/2000/svg"
   xmlns="http://www.w3.org/2000/svg"
   xmlns:sodipodi="http://sodipodi.sourceforge.net/DTD/sodipodi-0.dtd"
   xmlns:inkscape="http://www.inkscape.org/namespaces/inkscape"
   width="178.67584mm"
   height="181.58658mm"
   viewBox="0 0 633.10338 643.41701"
   id="svg2"
   version="1.1"
   inkscape:version="0.91 r13725"
   sodipodi:docname="verkleinern.svg">
  <defs
     id="defs4" />
  <sodipodi:namedview
     id="base"
     pagecolor="#ffffff"
     bordercolor="#666666"
     borderopacity="1.0"
     inkscape:pageopacity="0.0"
     inkscape:pageshadow="2"
     inkscape:zoom="0.49497475"
     inkscape:cx="526.25421"
     inkscape:cy="286.72054"
     inkscape:document-units="px"
     inkscape:current-layer="g4270"
     showgrid="false"
     showguides="true"
     inkscape:guide-bbox="true"
     fit-margin-top="0"
     fit-margin-left="0"
     fit-margin-right="0"
     fit-margin-bottom="0"
     inkscape:window-width="1440"
     inkscape:window-height="837"
     inkscape:window-x="-8"
     inkscape:window-y="-8"
     inkscape:window-maximized="1" />
  <metadata
     id="metadata7">
    <rdf:RDF>
      <cc:Work
         rdf:about="">
        <dc:format>image/svg+xml</dc:format>
        <dc:type
           rdf:resource="http://purl.org/dc/dcmitype/StillImage" />
        <dc:title></dc:title>
      </cc:Work>
    </rdf:RDF>
  </metadata>
  <g
     inkscape:label="Ebene 1"
     inkscape:groupmode="layer"
     id="layer1"
     transform="translate(-39.260996,-203.35403)">
    <g
       id="g4270"
       inkscape:export-xdpi="90"
       inkscape:export-ydpi="90">
      <g
         id="g4223"
         transform="translate(52.527928,-56.568549)">
        <path
           inkscape:connector-curvature="0"
           id="rect4159"
           d="m 75.714272,319.60211 c 20.181427,0 36.428568,16.24714 36.428568,36.42857 l 0,454.28575 c 0,20.18142 -16.247141,36.42857 -36.428568,36.42857 -20.181428,0 -36.42857,-16.24715 -36.42857,-36.42857 l 0,-454.28575 c 0,-20.18143 16.247142,-36.42857 36.42857,-36.42857 z"
           style="fill:#000000;stroke-width:1.02663016;stroke-linecap:round;stroke-linejoin:round;stroke-miterlimit:4;stroke-dasharray:none" />
        <path
           transform="matrix(0,-1,1,0,0,0)"
           inkscape:connector-curvature="0"
           id="rect4159-2"
           d="m -810.31643,39.285702 c 20.18143,0 36.42857,16.247142 36.42857,36.42857 l 0,454.285748 c 0,20.18142 -16.24714,36.42857 -36.42857,36.42857 -20.18142,0 -36.42857,-16.24715 -36.42857,-36.42857 l 0,-454.285748 c 0,-20.181428 16.24715,-36.42857 36.42857,-36.42857 z"
           style="fill:#000000;stroke-width:1.02663016;stroke-linecap:round;stroke-linejoin:round;stroke-miterlimit:4;stroke-dasharray:none" />
        <path
           inkscape:connector-curvature="0"
           id="rect4159-2-6"
           d="m 50.160546,838.18308 -0.153545,-0.13534 C 36.32261,825.9859 35.614414,805.8333 48.419118,792.86256 L 508.59472,326.71971 c 12.8047,-12.97074 34.12986,-13.70246 47.81425,-1.64062 l 0.15355,0.13534 c 13.68438,12.06184 14.39258,32.21443 1.58788,45.18517 L 97.974797,836.54245 c -12.804705,12.97075 -34.129866,13.70247 -47.814251,1.64063 z"
           style="fill:#000000;stroke-width:1.02663016;stroke-linecap:round;stroke-linejoin:round;stroke-miterlimit:4;stroke-dasharray:none" />
      </g>
    </g>
  </g>
</svg>
